<svg width="260" height="260" viewBox="0 0 260 260" fill="none" xmlns="http://www.w3.org/2000/svg">
<circle cx="130" cy="130" r="130" fill="url(#paint0_linear_303_9)"/>
<g filter="url(#filter0_d_303_9)">
<circle cx="129.5" cy="129.5" r="111" stroke="white" stroke-width="3" shape-rendering="crispEdges"/>
</g>
<path d="M35.3409 156V103.636H41.6818V150.375H66.0227V156H35.3409ZM117.984 129.818C117.984 135.341 116.987 140.114 114.992 144.136C112.998 148.159 110.262 151.261 106.785 153.443C103.308 155.625 99.3359 156.716 94.87 156.716C90.4041 156.716 86.4325 155.625 82.9553 153.443C79.478 151.261 76.7422 148.159 74.7479 144.136C72.7536 140.114 71.7564 135.341 71.7564 129.818C71.7564 124.295 72.7536 119.523 74.7479 115.5C76.7422 111.477 79.478 108.375 82.9553 106.193C86.4325 104.011 90.4041 102.92 94.87 102.92C99.3359 102.92 103.308 104.011 106.785 106.193C110.262 108.375 112.998 111.477 114.992 115.5C116.987 119.523 117.984 124.295 117.984 129.818ZM111.847 129.818C111.847 125.284 111.089 121.457 109.572 118.338C108.072 115.219 106.035 112.858 103.461 111.256C100.904 109.653 98.0405 108.852 94.87 108.852C91.6996 108.852 88.8274 109.653 86.2536 111.256C83.6967 112.858 81.6598 115.219 80.1428 118.338C78.6428 121.457 77.8928 125.284 77.8928 129.818C77.8928 134.352 78.6428 138.179 80.1428 141.298C81.6598 144.418 83.6967 146.778 86.2536 148.381C88.8274 149.983 91.6996 150.784 94.87 150.784C98.0405 150.784 100.904 149.983 103.461 148.381C106.035 146.778 108.072 144.418 109.572 141.298C111.089 138.179 111.847 134.352 111.847 129.818ZM164.441 120C163.879 118.278 163.137 116.736 162.217 115.372C161.313 113.991 160.231 112.815 158.969 111.844C157.725 110.872 156.31 110.131 154.725 109.619C153.14 109.108 151.401 108.852 149.509 108.852C146.407 108.852 143.586 109.653 141.046 111.256C138.506 112.858 136.487 115.219 134.987 118.338C133.487 121.457 132.737 125.284 132.737 129.818C132.737 134.352 133.495 138.179 135.012 141.298C136.529 144.418 138.583 146.778 141.174 148.381C143.765 149.983 146.68 150.784 149.918 150.784C152.918 150.784 155.56 150.145 157.844 148.866C160.146 147.571 161.935 145.747 163.214 143.395C164.509 141.026 165.157 138.239 165.157 135.034L167.1 135.443H151.35V129.818H171.293V135.443C171.293 139.756 170.373 143.506 168.532 146.693C166.708 149.881 164.185 152.352 160.964 154.108C157.759 155.847 154.077 156.716 149.918 156.716C145.282 156.716 141.208 155.625 137.697 153.443C134.202 151.261 131.475 148.159 129.515 144.136C127.572 140.114 126.6 135.341 126.6 129.818C126.6 125.676 127.154 121.952 128.262 118.645C129.387 115.321 130.972 112.491 133.018 110.156C135.063 107.821 137.484 106.031 140.279 104.787C143.075 103.543 146.151 102.92 149.509 102.92C152.271 102.92 154.844 103.338 157.231 104.173C159.634 104.991 161.773 106.159 163.648 107.676C165.54 109.176 167.117 110.974 168.379 113.071C169.64 115.151 170.509 117.46 170.987 120H164.441ZM226.335 129.818C226.335 135.341 225.338 140.114 223.344 144.136C221.349 148.159 218.614 151.261 215.136 153.443C211.659 155.625 207.688 156.716 203.222 156.716C198.756 156.716 194.784 155.625 191.307 153.443C187.83 151.261 185.094 148.159 183.099 144.136C181.105 140.114 180.108 135.341 180.108 129.818C180.108 124.295 181.105 119.523 183.099 115.5C185.094 111.477 187.83 108.375 191.307 106.193C194.784 104.011 198.756 102.92 203.222 102.92C207.688 102.92 211.659 104.011 215.136 106.193C218.614 108.375 221.349 111.477 223.344 115.5C225.338 119.523 226.335 124.295 226.335 129.818ZM220.199 129.818C220.199 125.284 219.44 121.457 217.923 118.338C216.423 115.219 214.386 112.858 211.812 111.256C209.256 109.653 206.392 108.852 203.222 108.852C200.051 108.852 197.179 109.653 194.605 111.256C192.048 112.858 190.011 115.219 188.494 118.338C186.994 121.457 186.244 125.284 186.244 129.818C186.244 134.352 186.994 138.179 188.494 141.298C190.011 144.418 192.048 146.778 194.605 148.381C197.179 149.983 200.051 150.784 203.222 150.784C206.392 150.784 209.256 149.983 211.812 148.381C214.386 146.778 216.423 144.418 217.923 141.298C219.44 138.179 220.199 134.352 220.199 129.818Z" fill="white"/>
<defs>
<filter id="filter0_d_303_9" x="13" y="17" width="233" height="233" filterUnits="userSpaceOnUse" color-interpolation-filters="sRGB">
<feFlood flood-opacity="0" result="BackgroundImageFix"/>
<feColorMatrix in="SourceAlpha" type="matrix" values="0 0 0 0 0 0 0 0 0 0 0 0 0 0 0 0 0 0 127 0" result="hardAlpha"/>
<feOffset dy="4"/>
<feGaussianBlur stdDeviation="2"/>
<feComposite in2="hardAlpha" operator="out"/>
<feColorMatrix type="matrix" values="0 0 0 0 0 0 0 0 0 0 0 0 0 0 0 0 0 0 0.25 0"/>
<feBlend mode="normal" in2="BackgroundImageFix" result="effect1_dropShadow_303_9"/>
<feBlend mode="normal" in="SourceGraphic" in2="effect1_dropShadow_303_9" result="shape"/>
</filter>
<linearGradient id="paint0_linear_303_9" x1="83" y1="59" x2="220.5" y2="238.5" gradientUnits="userSpaceOnUse">
<stop stop-color="#80FF00"/>
<stop offset="1" stop-color="#00C140"/>
</linearGradient>
</defs>
</svg>
